 http://www.shotpix.com/images/83270018113961384052.jpeg


Source: 720p.BluRay.x264-Japhson
 
http://www.imdb.com/title/tt1785277/

A stranger with a haunted past shows up unannounced at the home of Hollywood's hottest horror director, and is determined to teach him what real horror is all about.

General
Complete name                            : A Thousand Cuts 2011 BRRip x264 AAC-BiGKATS.mp4
Format                                   : MPEG-4
Format profile                           : Base Media
Codec ID                                 : isom
File size                                : 699 MiB
Duration                                 : 1h 17mn
Overall bit rate mode                    : Variable
Overall bit rate                         : 1 255 Kbps
Encoded date                             : UTC 2013-01-12 17:46:51
Tagged date                              : UTC 2013-01-12 17:46:51

Video
ID                                       : 1
Format                                   : AVC
Format/Info                              : Advanced Video Codec
Format profile                           : High@L4.1
Format settings, CABAC                   : Yes
Format settings, ReFrames                : 3 frames
Codec ID                                 : avc1
Codec ID/Info                            : Advanced Video Coding
Duration                                 : 1h 17mn
Bit rate mode                            : Variable
Bit rate                                 : 1 124 Kbps
Maximum bit rate                         : 40.0 Mbps
Width                                    : 720 pixels
Height                                   : 400 pixels
Display aspect ratio                     : 16:9
Frame rate mode                          : Constant
Frame rate                               : 23.976 fps
Color space                              : YUV
Chroma subsampling                       : 4:2:0
Bit depth                                : 8 bits
Scan type                                : Progressive
Bits/(Pixel*Frame)                       : 0.163
Stream size                              : 626 MiB (89%)
Writing library                          : x264 core 129 r2245 bc13772

Audio
ID                                       : 2
Format                                   : AAC
Format/Info                              : Advanced Audio Codec
Format profile                           : LC
Codec ID                                 : 40
Duration                                 : 1h 17mn
Bit rate mode                            : Variable
Bit rate                                 : 128 Kbps
Maximum bit rate                         : 150 Kbps
Channel(s)                               : 6 channels
Channel positions                        : Front: L C R, Side: L R, LFE
Sampling rate                            : 48.0 KHz
Compression mode                         : Lossy
Stream size                              : 71.1 MiB (10%)
Language                                 : English
Encoded date                             : UTC 2013-01-12 14:37:01
Tagged date                              : UTC 2013-01-12 17:47:20

 
http://www.shotpix.com/images/39862018944830788681.png 
http://www.shotpix.com/images/19477025083728965382.png 
http://www.shotpix.com/images/33416723441219492187.png
